name Walk5.mot
datacolumns 19
datarows 30
range 1.56000000 1.58900000
endheader

                time	   L_ground_force_vx	   L_ground_force_vy	   L_ground_force_vz	   L_ground_force_px	   L_ground_force_py	   L_ground_force_pz	   R_ground_force_vx	   R_ground_force_vy	   R_ground_force_vz	   R_ground_force_px	   R_ground_force_py	   R_ground_force_pz	   L_ground_torque_x	   L_ground_torque_y	   L_ground_torque_z	   R_ground_torque_x	   R_ground_torque_y	   R_ground_torque_z	
          1.56000000	         -0.02852211	          0.43941163	         -0.05437851	          0.00042339	          0.00000000	          0.00034554	         18.47413559	        660.33402057	        -13.24734623	         -0.16992092	          0.00000000	          0.34574829	          0.00000000	          0.00026518	          0.00000000	          0.00000000	          2.61971210	          0.00000000	
          1.56100000	         -0.03058682	          0.45640345	         -0.05598416	          0.00043289	          0.00000000	          0.00035266	         18.80356409	        662.30166554	        -13.21708633	         -0.16946595	          0.00000000	          0.34570697	          0.00000000	          0.00027230	          0.00000000	          0.00000000	          2.61850576	          0.00000000	
          1.56200000	         -0.03271708	          0.47308933	         -0.05750780	          0.00044150	          0.00000000	          0.00035899	         19.13802855	        664.26886804	        -13.19281388	         -0.16901166	          0.00000000	          0.34566559	          0.00000000	          0.00027896	          0.00000000	          0.00000000	          2.61633955	          0.00000000	
          1.56300000	         -0.03491017	          0.48937193	         -0.05893553	          0.00044908	          0.00000000	          0.00036443	         19.47772539	        666.23529862	        -13.17448098	         -0.16855814	          0.00000000	          0.34562415	          0.00000000	          0.00028509	          0.00000000	          0.00000000	          2.61321239	          0.00000000	
          1.56400000	         -0.03716287	          0.50514653	         -0.06025253	          0.00045550	          0.00000000	          0.00036887	         19.82285385	        668.20063551	        -13.16201185	         -0.16810551	          0.00000000	          0.34558265	          0.00000000	          0.00029061	          0.00000000	          0.00000000	          2.60912522	          0.00000000	
          1.56500000	         -0.03947143	          0.52030077	         -0.06144307	          0.00046065	          0.00000000	          0.00037220	         20.17361628	        670.16456502	        -13.15530327	         -0.16765387	          0.00000000	          0.34554109	          0.00000000	          0.00029545	          0.00000000	          0.00000000	          2.60408094	          0.00000000	
          1.56600000	         -0.04183150	          0.53471443	         -0.06249049	          0.00046437	          0.00000000	          0.00037430	         20.53021816	        672.12678212	        -13.15422536	         -0.16720333	          0.00000000	          0.34549948	          0.00000000	          0.00029951	          0.00000000	          0.00000000	          2.59808434	          0.00000000	
          1.56700000	         -0.04423811	          0.54825916	         -0.06337717	          0.00046652	          0.00000000	          0.00037505	         20.89286761	        674.08699103	        -13.15862246	         -0.16675401	          0.00000000	          0.34545780	          0.00000000	          0.00030272	          0.00000000	          0.00000000	          2.59114213	          0.00000000	
          1.56800000	         -0.04668566	          0.56079827	         -0.06408449	          0.00046694	          0.00000000	          0.00037432	         21.26177475	        676.04490552	        -13.16831378	         -0.16630602	          0.00000000	          0.34541605	          0.00000000	          0.00030497	          0.00000000	          0.00000000	          2.58326295	          0.00000000	
          1.56900000	         -0.04916785	          0.57218653	         -0.06459288	          0.00046547	          0.00000000	          0.00037197	         21.63715076	        678.00024935	        -13.18309395	         -0.16585950	          0.00000000	          0.34537422	          0.00000000	          0.00030617	          0.00000000	          0.00000000	          2.57445752	          0.00000000	
          1.57000000	         -0.05167763	          0.58226997	         -0.06488175	          0.00046194	          0.00000000	          0.00036787	         22.01920706	        679.95275704	        -13.20273331	         -0.16541457	          0.00000000	          0.34533232	          0.00000000	          0.00030622	          0.00000000	          0.00000000	          2.56473892	          0.00000000	
          1.57100000	         -0.05420721	          0.59088568	         -0.06492951	          0.00045618	          0.00000000	          0.00036187	         22.40815454	        681.90217504	        -13.22697825	         -0.16497138	          0.00000000	          0.34529034	          0.00000000	          0.00030501	          0.00000000	          0.00000000	          2.55412282	          0.00000000	
          1.57200000	         -0.05674798	          0.59786171	         -0.06471355	          0.00044799	          0.00000000	          0.00035382	         22.80420305	        683.84826284	        -13.25555145	         -0.16453005	          0.00000000	          0.34524825	          0.00000000	          0.00030242	          0.00000000	          0.00000000	          2.54262789	          0.00000000	
          1.57300000	         -0.05929049	          0.60301688	         -0.06421027	          0.00043720	          0.00000000	          0.00034356	         23.20756100	        685.79079366	        -13.28815236	         -0.16409074	          0.00000000	          0.34520606	          0.00000000	          0.00029835	          0.00000000	          0.00000000	          2.53027614	          0.00000000	
          1.57400000	         -0.06182439	          0.60616068	         -0.06339503	          0.00042360	          0.00000000	          0.00033093	         23.61843514	        687.72955416	        -13.32445779	         -0.16365360	          0.00000000	          0.34516375	          0.00000000	          0.00029267	          0.00000000	          0.00000000	          2.51709329	          0.00000000	
          1.57500000	         -0.06433843	          0.60709323	         -0.06224222	          0.00040698	          0.00000000	          0.00031576	         24.03703047	        689.66434294	        -13.36412277	         -0.16321877	          0.00000000	          0.34512130	          0.00000000	          0.00028524	          0.00000000	          0.00000000	          2.50310902	          0.00000000	
          1.57600000	         -0.06682037	          0.60560520	         -0.06072523	          0.00038714	          0.00000000	          0.00029787	         24.46355008	        691.59496787	        -13.40678171	         -0.16278641	          0.00000000	          0.34507869	          0.00000000	          0.00027596	          0.00000000	          0.00000000	          2.48835721	          0.00000000	
          1.57700000	         -0.06925699	          0.60147780	         -0.05881649	          0.00036386	          0.00000000	          0.00027709	         24.89819486	        693.52124263	        -13.45204982	         -0.16235665	          0.00000000	          0.34503589	          0.00000000	          0.00026467	          0.00000000	          0.00000000	          2.47287597	          0.00000000	
          1.57800000	         -0.07163401	          0.59448281	         -0.05648747	          0.00033691	          0.00000000	          0.00025324	         25.34116314	        695.44298293	        -13.49952469	         -0.16192965	          0.00000000	          0.34499288	          0.00000000	          0.00025123	          0.00000000	          0.00000000	          2.45670767	          0.00000000	
          1.57900000	         -0.07393606	          0.58438265	         -0.05370874	          0.00030607	          0.00000000	          0.00022612	         25.79265023	        697.36000307	        -13.54878792	         -0.16150553	          0.00000000	          0.34494964	          0.00000000	          0.00023551	          0.00000000	          0.00000000	          2.43989865	          0.00000000	
          1.58000000	         -0.07614669	          0.57093048	         -0.05044998	          0.00027109	          0.00000000	          0.00019555	         26.25284814	        699.27211324	        -13.59940654	         -0.16108443	          0.00000000	          0.34490616	          0.00000000	          0.00021736	          0.00000000	          0.00000000	          2.42249889	          0.00000000	
          1.58100000	         -0.07824826	          0.55387038	         -0.04668004	          0.00023175	          0.00000000	          0.00016133	         26.72194538	        701.17911772	        -13.65093440	         -0.16066648	          0.00000000	          0.34486243	          0.00000000	          0.00019662	          0.00000000	          0.00000000	          2.40456140	          0.00000000	
          1.58200000	         -0.08022196	          0.53293754	         -0.04236700	          0.00018779	          0.00000000	          0.00012327	         27.20012687	        703.08081369	        -13.70291353	         -0.16025177	          0.00000000	          0.34481844	          0.00000000	          0.00017315	          0.00000000	          0.00000000	          2.38614155	          0.00000000	
          1.58300000	         -0.08204776	          0.50785853	         -0.03747820	          0.00013898	          0.00000000	          0.00008116	         27.68757347	        704.97699060	        -13.75487572	         -0.15984044	          0.00000000	          0.34477420	          0.00000000	          0.00014678	          0.00000000	          0.00000000	          2.36729648	          0.00000000	
          1.58400000	         -0.08370437	          0.47835164	         -0.03198033	          0.00008505	          0.00000000	          0.00003480	         28.18446124	        706.86742995	        -13.80634438	         -0.15943259	          0.00000000	          0.34472969	          0.00000000	          0.00011735	          0.00000000	          0.00000000	          2.34808473	          0.00000000	
          1.58500000	         -0.08516922	          0.44412727	         -0.02583949	          0.00002576	          0.00000000	         -0.00001601	         28.69096008	        708.75190559	        -13.85683654	         -0.15902833	          0.00000000	          0.34468493	          0.00000000	          0.00008470	          0.00000000	          0.00000000	          2.32856608	          0.00000000	
          1.58600000	         -0.08641846	          0.40488839	         -0.01902130	         -0.00003915	          0.00000000	         -0.00007148	         29.20723219	        710.63018416	        -13.90586506	         -0.15862776	          0.00000000	          0.34463992	          0.00000000	          0.00004867	          0.00000000	          0.00000000	          2.30880154	          0.00000000	
          1.58700000	         -0.08742689	          0.36033109	         -0.01149097	         -0.00010992	          0.00000000	         -0.00013181	         29.73343055	        712.50202566	        -13.95294116	         -0.15823098	          0.00000000	          0.34459465	          0.00000000	          0.00000908	          0.00000000	          0.00000000	          2.28885334	          0.00000000	
          1.58800000	         -0.08816796	          0.31014517	         -0.00321343	         -0.00018682	          0.00000000	         -0.00019719	         30.26969767	        714.36718384	        -13.99757710	         -0.15783812	          0.00000000	          0.34454912	          0.00000000	         -0.00003421	          0.00000000	          0.00000000	          2.26878482	          0.00000000	
          1.58900000	         -0.08861376	          0.25401484	          0.00584658	         -0.00027010	          0.00000000	         -0.00026784	         30.81616478	        716.22540637	        -14.03928920	         -0.15744925	          0.00000000	          0.34450332	          0.00000000	         -0.00008139	          0.00000000	          0.00000000	          2.24866007	          0.00000000	
